<svg  viewBox="0 0 28 28"  xmlns="http://www.w3.org/2000/svg">
<path d="M26.543 8.88392C26.543 8.88392 26.293 7.11941 25.5233 6.34463C24.5485 5.32491 23.4588 5.31991 22.959 5.25993C19.38 5 14.0065 5 14.0065 5H13.9965C13.9965 5 8.62296 5 5.04395 5.25993C4.54409 5.31991 3.45439 5.32491 2.47966 6.34463C1.70988 7.11941 1.46494 8.88392 1.46494 8.88392C1.46494 8.88392 1.20502 10.9583 1.20502 13.0278V14.9672C1.20502 17.0367 1.45995 19.1111 1.45995 19.1111C1.45995 19.1111 1.70988 20.8756 2.47466 21.6504C3.44939 22.6701 4.72904 22.6351 5.29888 22.7451C7.34831 22.94 14.0015 23 14.0015 23C14.0015 23 19.38 22.99 22.959 22.7351C23.4588 22.6751 24.5485 22.6701 25.5233 21.6504C26.293 20.8756 26.543 19.1111 26.543 19.1111C26.543 19.1111 26.7979 17.0417 26.7979 14.9672V13.0278C26.7979 10.9583 26.543 8.88392 26.543 8.88392ZM11.3572 17.3216V10.1286L18.2703 13.7376L11.3572 17.3216Z" fill="currentColor"/>
</svg>
