<svg viewBox="0 0 28 28" fill="none" xmlns="http://www.w3.org/2000/svg">
<path d="M21.2138 17.5615L21.2041 7.73724C21.2041 7.1806 20.8427 6.78998 20.2568 6.78998H10.4326C9.88571 6.78998 9.51462 7.2099 9.51462 7.67865C9.51462 8.1474 9.93454 8.54779 10.3935 8.54779H13.792L18.5576 8.39154L16.7412 9.98334L7.06345 19.6806C6.88766 19.8564 6.79001 20.081 6.79001 20.2959C6.79001 20.7646 7.20993 21.2041 7.69821 21.2041C7.92282 21.2041 8.13767 21.1259 8.31345 20.9404L18.0107 11.2529L19.622 9.4267L19.4462 13.9872V17.6005C19.4462 18.0595 19.8466 18.4892 20.3252 18.4892C20.7939 18.4892 21.2138 18.0888 21.2138 17.5615Z" fill="currentColor"/>
</svg>
