<svg  viewBox="0 0 28 28"  xmlns="http://www.w3.org/2000/svg">
<path d="M14.0009 23.9619C19.4502 23.9619 23.9619 19.4404 23.9619 14.0009C23.9619 8.5517 19.4404 4.03998 13.9912 4.03998C8.55173 4.03998 4.04001 8.5517 4.04001 14.0009C4.04001 19.4404 8.56149 23.9619 14.0009 23.9619ZM14.0009 22.3017C9.39157 22.3017 5.70993 18.6103 5.70993 14.0009C5.70993 9.39154 9.38181 5.70014 13.9912 5.70014C18.6005 5.70014 22.3017 9.39154 22.3017 14.0009C22.3017 18.6103 18.6103 22.3017 14.0009 22.3017Z" fill="currentColor"/>
<path d="M19.0107 13.9911C19.0107 13.7763 18.9326 13.6201 18.7373 13.4247L15.4365 10.1044C15.3095 9.97748 15.1338 9.90912 14.9287 9.90912C14.5283 9.90912 14.2255 10.2119 14.2255 10.6122C14.2255 10.8271 14.3134 11.0029 14.4404 11.1396L15.6611 12.3505L16.8427 13.3369L14.7822 13.2587H9.68454C9.26462 13.2587 8.95212 13.5615 8.95212 13.9911C8.95212 14.4111 9.26462 14.7138 9.68454 14.7138H14.7822L16.8427 14.6455L15.6611 15.6318L14.4404 16.8427C14.3037 16.9697 14.2255 17.1455 14.2255 17.3603C14.2255 17.7607 14.5283 18.0732 14.9287 18.0732C15.1338 18.0732 15.3095 17.9951 15.4365 17.8681L18.7373 14.5576C18.9228 14.3818 19.0107 14.206 19.0107 13.9911Z" fill="currentColor"/>
</svg>
