<svg  viewBox="0 0 28 28"  xmlns="http://www.w3.org/2000/svg">
<path d="M14.0009 23.9619C19.4502 23.9619 23.9619 19.4404 23.9619 14.0009C23.9619 8.5517 19.4404 4.03998 13.9911 4.03998C8.5517 4.03998 4.03998 8.5517 4.03998 14.0009C4.03998 19.4404 8.56146 23.9619 14.0009 23.9619ZM14.0009 22.3017C9.39154 22.3017 5.7099 18.6103 5.7099 14.0009C5.7099 9.39154 9.38178 5.70014 13.9911 5.70014C18.6005 5.70014 22.3017 9.39154 22.3017 14.0009C22.3017 18.6103 18.6103 22.3017 14.0009 22.3017Z" fill="currentColor"/>
<path d="M13.9912 15.7588C14.4502 15.7588 14.7236 15.4951 14.7334 14.9873L14.8798 9.83099C14.8896 9.33294 14.499 8.96185 13.9814 8.96185C13.454 8.96185 13.083 9.32317 13.0927 9.82122L13.2197 14.9873C13.2294 15.4853 13.5029 15.7588 13.9912 15.7588ZM13.9912 18.9326C14.5478 18.9326 15.0361 18.4834 15.0361 17.917C15.0361 17.3505 14.5576 16.9013 13.9912 16.9013C13.415 16.9013 12.9365 17.3603 12.9365 17.917C12.9365 18.4736 13.4248 18.9326 13.9912 18.9326Z" fill="currentColor"/>
</svg>
